<svg xmlns="http://www.w3.org/2000/svg" viewBox="0 0 371.93 598.47"><defs><style>.cls-1{fill:none;stroke:#fff;stroke-miterlimit:10;stroke-width:.5px}</style></defs><g id="Layer_2" data-name="Layer 2"><g id="Colour"><path class="cls-1" d="M242.73 232.65l20-10 23 26-17-4-26-12z"/><path class="cls-1" d="M283.95 218.4l1.78 30.25 12.5 3.5-5.56-19.53-8.72-14.22z"/><path class="cls-1" d="M242.4 232.82l-18.67 6.28 60.32 38.74 14.79-25.55-12.86-3.36-17.25-5.28-26.33-10.83"/><path class="cls-1" d="M223.73 239.1l-20.17 13.89 58.92 66.39L306.59 269l11.46-36.12-14.8-22.5-10.84 22.46 6.32 20.18-14.68 24.82-60.32-38.74"/><path class="cls-1" d="M203.56 252.99l-5.45 65.62 24.3 79.24 40.07-78.47-58.92-66.39m114.34-4.85l-11.53 20.4 8.9 22.93-23.72 12.85 2.73 19.88 30.27 9.78-5.12-11.55 12-16 15.3-.16 1.61 13.65 12.13 2.28 8.84-31.43-41.16-37.75-10.25-4.88m-26.34-34.83l7.52-18.79-26.48-15.51-33.72-6.7-20.98 7.68-33.48 21.46 19.33 7.8 51.86-16.96"/><path class="cls-1" d="M203.75 209.25l29.37 17.9L247.88 217l20.82-3.96 14.86 4.27 8-4-35.64-20.98-52.17 16.92m-19.17-60.26l33.07 13.88-32.13 38.7-21.06 31.28-30.23-34.2 50.88-38-.53-11.66"/><path class="cls-1" d="M166.99 101.04l99.41 7.32-48.75 54.51-33.07-13.88-24.42-27.43 6.83-20.52"/><path class="cls-1" d="M266.4 108.36l32.68 86.16-26.48-15.51-33.72-6.7-21.23-9.44 48.75-54.51m0 0l36.96 16.53"/><path class="cls-1" d="M266.4 108.36l36.96 16.53-.11 85.49m.11-85.49l25.44 33.57 13.86 44.82-38.85 7.74-.45-86.13m-117.84 76.68l18.23 7.68 29.04 17.95-8.06 10.74-21.17 15.05L164 233.45l21.52-31.88m32.13-38.7l21.23 9.44-20.98 7.68-32.38 21.58 32.13-38.7m-14.09 90.12l-5.45 65.62 24.3 79.24-54.63-10.51-16.38-29.52 52.16-104.83 58.92 66.39"/><path class="cls-1" d="M262.48 319.38L306.59 269l8.68 22.47-23.72 12.85 2.73 19.88-31.8-4.82m61.92 14.09l-5.01-10.66 12.04-16.38 15.3-.16 1.61 13.65-9.83-3.57-8.11 6.12-6 11"/><path class="cls-1" d="M294.28 324.2l-29.72 64.78 26.46 11.46 4.01-8.55 44.8-33.85 13.2 1.39-6.67-7.8 1.98-31.71-9.5-3.63-7.82 6.61-5.96 10.93-30.78-9.63m32.6-117.9l-9.51 26.24-14.12-22.16 23.63-4.08"/><path class="cls-1" d="M326.88 206.3l15.59-2.22 5.3 16.99-15.04.2-14.68 11.61 8.83-26.58m-43.42 207.13l-22.34 48.21 8.98 12.74 65.64-12.93 8.07-20.99 12-8.16-72.35-18.87M164 233.45l39.56 19.54-52.16 104.83L164 233.45m-30.33-34.3l30.33 34.3-12.37 121.51-12.52-70.32 5.99-52.95-11.43-32.54m128.81 120.23l31.8 4.82-29.72 64.78 26.46 11.46-6.85 12.87-61.12-15.86 39.43-78.07"/><path class="cls-1" d="M291.02 400.44l4.01-8.55 44.8-33.85 12.6 1.83 10.36-1.85-28.42 18.53-8.96 3.36-34.39 20.53m-68.61-2.59l61.76 15.46-22.34 48.21-39.42-63.67m0 0l39.42 63.67-2.81 5.44-67.63-33.15-23.61-46.47 54.63 10.51m-31.02 35.96l67.63 33.15-25.73 56.37-41.9-89.52m111.97-308.92l34.94-17.59 8.77-38.02-15.7 2.95-3.63-13.61-8.95 17.03-5.55-32.85-7.83-21.35L286.05.68l-1.99 10.44-19.83 2.99-11.44 6.09-19.38-14.42 2.67 19.7L198.23.58v8.79L174.18.35l-.96 12.39-19.47 6.43-14.61-4.74-10.36 9.89-13.12-10.3 2.66 8.85-28.44 18.28h-19.5l5.91 22.65-16.75 18.12-10.58 6.73L.25 222.85l3.9 83.78 13.91-32.79 15.82-19.78 15.73 2.95 24.85 11.93 65.82 113.43 11.12-24.55-12.29-73.18 5.99-52.95-11.43-32.54 51.44-38.5-.53-11.66-24.42-27.43 6.83-20.52 99.41 7.32 36.96 16.53"/><path class="cls-1" d="M224.73 237.94l8.06-10.74 15.09-10.2 20.82-3.96 14.86 4.27-.2 4.96-20.97.23-19.99 10.32-17.67 5.12m58.83-20.63l8.26-3.3 11.43-3.63-10.84 22.46-8.85-15.53 34.49 15.57m0 0l2.85 13.63-3.44.88-9.2 17.52 9.79-32.03"/><path class="cls-1" d="M318.05 232.88l14.68-11.61 15.55.54 6.13 13.35-31.99 11.24-4.37-13.52"/><path class="cls-1" d="M322.35 246.27l21.95-2.67 4.24 17.7-20.46-8.41-2.8-2.37-2.93-4.25m-31.33 154.17l45.64-2.42 21.14 3.26 3.54 19.33-4.82 11.57L331.6 424l-40.58-23.56m43.35-23.89l14.33 3.7-11.9 17.03-44.66 2.7 33.27-20.07 8.96-3.36"/><path class="cls-1" d="M348.7 380.25l9.1 21.03-21-4 11.9-17.03m15.93-22.73l6.95 12.79-22.88 9.94-14.33-3.7 30.26-19.03"/><path class="cls-1" d="M348.7 380.25l22.57-8.97-13.47 30-9.1-21.03m-77.9 94.77l65.65-13.7 8.07-20.98 11.84-8.17-1.13 46.4-13.51 26.83-43.58 14.61-27.34-44.99m-5.26 52.73l23.49-5.64-13.4 38.51-53.22-4.1 43.13-28.77m82.8-207.83l12.13 2.28 5.26-15.55-1.1 50.87-11.6 1.91-6.67-7.8 1.98-31.71M191.39 433.81l41.9 89.52-97.26-52.95-34.68-80.77-4.99-35.91v-21.68l-13-23.14-17.09-8.86-2.88-19.13-24.49-12.73-14.79 31.57v23.76l30.43 29.45 3.97-14.08 15.24 1.41 22.61 13.43 4.99 35.91-46.99-17.89-30.33-30.3-19.88-34.79 13.91-32.79 15.82-19.78 15.73 2.95 24.85 11.93 65.82 113.43M331.6 424l24.37 8.17-71.8-18.86 6.85-12.87m37.13-147.42l20.46 8.41 17.12 26.5-37.58-34.91m-5.73-6.62l31.99-11.24.9 8.07-10.65-.95-22.24 4.12m-60.03-23.9l20.97-.23 2.65 26.13-23.62-25.9m36.69-27.98l4.17 15.86-11.69 2.93 7.52-18.79"/><path class="cls-1" d="M140.28 382.37l27.5 4.97-27.5-4.97 11.28-25.05 16.22 30.02m-27.5-4.97l51.11 51.44-51.11-51.44 27.5 4.97 23.61 46.47m-90.04-44.2l34.68 80.77 96.58 53.26-13.96 31.26-73.07-30.91-66.85-72.97 22.62-61.41"/><path class="cls-1" d="M78.73 451.02l-11.95 49.27 130.8 97.8 21.07-43.19-73.07-30.91-66.85-72.97m-11.95 49.27l.39 9.83-20.81 43.59 17.39 44.44 133.83-.06-130.8-97.8m151.87 54.61l4.29 2.06 52.8 3.48-7.35 17.51-14.43 20.2-56.38-.06 21.07-43.19"/><path class="cls-1" d="M54.66 371.28l46.69 18.33-22.62 61.41-8-.3-16.07-79.44m178.63 152.05l13.27 7.65 18.96-3.36-43 28.72-3.87-1.44 14.64-31.57"/><path class="cls-1" d="M70.04 450.27L55.1 371.58 4.15 306.63l19.32 35.29.76 34.58 45.81 73.77M54.97 300.02h11.3l-7.76 38.84-14.33-15.28 10.79-23.56"/><path class="cls-1" d="M66.27 300.02l17.09 8.86v22.77l13 .37v21.68l-22.61-13.43-15.24-1.41 7.76-38.84m0 0l-2.88-19.13-24.49-12.73-14.79 31.57v23.76l30.43 29.45 3.97-14.08-14.33-15.28 10.79-23.56h11.3"/><path class="cls-1" d="M83.36 308.88l13 23.14H83.73l-.37-23.14m261.48-66.4l10.48 1.12-6.39 17.72-3.87-18.4M70.04 450.27l9.04.51-11.91 59.34 2.87-59.85m247.42-202.88l4.35-.92 2.55 2.74 1.42 2.55-8.32-4.37m-55.63 214.13l-2.81 5.44 11.79 7.29 27.33 45.76-51.58 10.97-13.27-7.65 25.73-56.37"/></g></g></svg>