<svg data-name="Layer 1" xmlns="http://www.w3.org/2000/svg" viewBox="0 0 90 90"><path d="M2.28 59.14a45 45 0 0010.21 17L29 59.59V32.41zM29 62.41l-15.1 15.1A45.09 45.09 0 0029 87.06zm2-30v25.18L43.59 45 31 32.41zm30 0v27.18L77.51 76.1a45 45 0 0010.21-17zm15.1 45.1L61 62.41v24.65a45.09 45.09 0 0015.1-9.55zM32.41 31L45 43.59 57.59 31H32.41zM61 29h26.06A45.11 45.11 0 0061 2.94zm27.38 28a45 45 0 00-.61-26H62.41zM27.59 31H2.23a45 45 0 00-.61 26zM31 29h28V2.23a45.06 45.06 0 00-28 0zm-2 0V2.94A45.11 45.11 0 002.94 29zm30 31.41l-14-14-14 14v27.36a45.06 45.06 0 0028 0zm0-28L46.41 45 59 57.59V32.41z"/><path d="M45 4A41 41 0 114 45 41 41 0 0145 4m0-4a45 45 0 1045 45A45 45 0 0045 0z"/></svg>